<svg xmlns="http://www.w3.org/2000/svg" width="34" height="34">
    <defs>
        <style>
            .cls-2{fill:#fff}
        </style>
    </defs>
    <g id="다시하기_아이콘" data-name="다시하기 아이콘" transform="translate(-226 -722)">
        <circle id="타원_3" data-name="타원 3" cx="17" cy="17" r="17" transform="translate(226 722)" style="fill:#a0a0a0"/>
        <path id="빼기_2" data-name="빼기 2" class="cls-2" d="M348.5-1070.393a10.435 10.435 0 0 1-7.425-3.075 10.434 10.434 0 0 1-3.074-7.425 10.511 10.511 0 0 1 10.5-10.5 10.431 10.431 0 0 1 7.425 3.075 10.678 10.678 0 0 1 .976 1.122l-2.053 1.438a7.949 7.949 0 0 0-6.347-3.136 8.009 8.009 0 0 0-8 8 8.009 8.009 0 0 0 8 8 8.007 8.007 0 0 0 5.994-2.707l1.467 2.1-.034.034a10.438 10.438 0 0 1-7.429 3.074z" transform="translate(-105.555 1819.892)"/>
        <path id="다각형_2" data-name="다각형 2" class="cls-2" d="M3.5 0 7 4.479H0z" transform="rotate(146 15.418 406.618)"/>
    </g>
</svg>
