<svg xmlns="http://www.w3.org/2000/svg" width="20.75" height="20.735">
    <g data-name="그룹 18519">
        <path data-name="패스 7695" d="M209.187 50.013c-6.471 2.912-6.856 7.258-6.669 10.772.316 5.924 6.275 9.066 6.275 9.066a9.934 9.934 0 0 1 .394-19.839h.306a9.934 9.934 0 0 1 0 19.868 9.55 9.55 0 0 1-.7-.025" transform="translate(-199.189 -49.518)" style="stroke:#000;stroke-linejoin:round;stroke-width:.75px;fill:#feee96;stroke-linecap:square"/>
        <path data-name="패스 7696" d="M210.77 50.012c-6.5 2.912-6.889 7.258-6.7 10.772.316 5.924 6.3 9.066 6.3 9.066.232.017.467.025.7.025a9.936 9.936 0 0 0 .347-19.869h-.653" transform="translate(-200.696 -49.517)" style="fill:#3b3170;stroke-linecap:round;stroke:#000;stroke-linejoin:round;stroke-width:.75px"/>
    </g>
</svg>
