<svg xmlns="http://www.w3.org/2000/svg" width="17.649" height="22.363">
    <path data-name="빼기 3" d="M8.824 22.363a5.215 5.215 0 0 1-3.434-1.511 13.969 13.969 0 0 1-2.8-3.69 22.884 22.884 0 0 1-1.891-4.6A15.862 15.862 0 0 1 0 8.305a8.014 8.014 0 0 1 2.585-5.98A9.158 9.158 0 0 1 8.824 0a9.158 9.158 0 0 1 6.24 2.325 8.014 8.014 0 0 1 2.585 5.98 15.862 15.862 0 0 1-.693 4.253 22.884 22.884 0 0 1-1.891 4.6 13.969 13.969 0 0 1-2.8 3.69 5.215 5.215 0 0 1-3.441 1.515zm0-17.692a3.893 3.893 0 1 0 3.893 3.893 3.9 3.9 0 0 0-3.893-3.892z"/>
</svg>
